<?xml version="1.0" encoding="UTF-8" standalone="no"?>
<svg
   width="5520.7129"
   height="7540.5078"
   viewBox="0 0 5520.7129 7540.5079"
   fill="none"
   version="1.1"
   id="svg9"
   sodipodi:docname="Frame 1.svg"
   inkscape:export-filename="../../../../../Pictures/DimensionDiverLogos/final2.png"
   inkscape:export-xdpi="96"
   inkscape:export-ydpi="96"
   inkscape:version="1.3 (0e150ed6c4, 2023-07-21)"
   xmlns:inkscape="http://www.inkscape.org/namespaces/inkscape"
   xmlns:sodipodi="http://sodipodi.sourceforge.net/DTD/sodipodi-0.dtd"
   xmlns="http://www.w3.org/2000/svg"
   xmlns:svg="http://www.w3.org/2000/svg">
  <defs
     id="defs9" />
  <sodipodi:namedview
     id="namedview9"
     pagecolor="#505050"
     bordercolor="#ffffff"
     borderopacity="1"
     inkscape:showpageshadow="0"
     inkscape:pageopacity="0"
     inkscape:pagecheckerboard="1"
     inkscape:deskcolor="#505050"
     inkscape:zoom="0.20992233"
     inkscape:cx="2874.8729"
     inkscape:cy="2939.1824"
     inkscape:window-width="1274"
     inkscape:window-height="1383"
     inkscape:window-x="1924"
     inkscape:window-y="53"
     inkscape:window-maximized="0"
     inkscape:current-layer="g11" />
  <rect
     style="fill:#000000;fill-opacity:1;stroke:#000000;stroke-width:2;stroke-linecap:square;stroke-opacity:0"
     id="rect12"
     width="5520.7129"
     height="7540.5078"
     x="0"
     y="0" />
  <g
     id="g12"
     transform="matrix(1.5416301,0,0,1.5416301,-539.6225,-426.18983)">
    <path
       fill-rule="evenodd"
       clip-rule="evenodd"
       d="m 1354.4317,1817.4583 -25.422,49.364 v 505.685 0 25.28 l 25.423,49.37 25.422,-49.37 v -505.681 0 -25.284 z"
       fill="#ffffff"
       id="path1" />
    <path
       fill-rule="evenodd"
       clip-rule="evenodd"
       d="m 2875.8777,1817.4583 -25.43,49.364 v 223.018 282.667 25.28 l 25.43,49.37 25.42,-49.37 v -25.28 -480.401 -25.284 z"
       fill="#ffffff"
       id="path2" />
    <path
       fill-rule="evenodd"
       clip-rule="evenodd"
       d="m 2115.1577,1314.8733 -25.43,49.364 v 219.135 286.55 25.284 l 25.43,49.364 25.42,-49.364 v -25.284 -480.4 -25.285 z"
       fill="#ffffff"
       id="path3" />
    <path
       fill-rule="evenodd"
       clip-rule="evenodd"
       d="m 1735.7707,1582.7883 -25.423,49.364 v 505.685 h 10e-4 v 25.28 l 25.422,49.37 25.423,-49.37 v -505.681 h -10e-4 v -25.284 z"
       fill="#ffffff"
       id="path4" />
    <path
       fill-rule="evenodd"
       clip-rule="evenodd"
       d="m 2498.4477,1596.4773 -25.42,49.364 v 212.564 293.121 25.281 l 25.42,49.37 25.42,-49.37 v -25.281 -480.4 -25.285 z"
       fill="#ffffff"
       id="path5" />
    <path
       d="m 2281.3777,1866.8223 -4.44,-2.289 -0.56,1.077 v 1.212 z m 25.42,-49.364 4.45,-2.29 -4.45,-8.631 -4.44,8.631 z m -25.42,555.049 h 5 v 0 z m 0,25.28 h -5 v 1.22 l 0.56,1.07 z m 25.42,49.37 -4.44,2.29 4.44,8.63 4.45,-8.63 z m 25.43,-49.37 4.44,2.29 0.56,-1.07 v -1.22 z m 0,-25.28 h 5 v 0 z m 0,-480.401 h 5 v 0 z m 0,-25.284 h 5 v -1.212 l -0.56,-1.077 z m -46.4,2.289 25.42,-49.364 -8.89,-4.579 -25.42,49.365 z m 0.55,194.519 v -196.808 h -10 v 196.808 z m 0,308.877 v -308.877 h -10 v 308.877 z m 0,25.28 v -25.28 h -10 v 25.28 z m 24.87,47.08 -25.42,-49.37 -8.89,4.58 25.42,49.37 z m 16.53,-49.37 -25.42,49.37 8.89,4.58 25.42,-49.37 z m -0.55,-22.99 v 25.28 h 10 v -25.28 z m 0,-480.401 v 480.401 h 10 v -480.401 z m 0,-25.284 v 25.284 h 10 v -25.284 z m -24.87,-47.075 25.42,49.364 8.89,-4.578 -25.42,-49.365 z"
       fill="#ffffff"
       id="path6" />
    <path
       fill-rule="evenodd"
       clip-rule="evenodd"
       d="m 1925.4627,1817.4583 -25.423,49.364 v 197.928 307.757 25.28 l 25.422,49.37 25.423,-49.37 v -25.28 -480.401 -25.284 z"
       fill="#ffffff"
       id="path7" />
    <path
       fill-rule="evenodd"
       clip-rule="evenodd"
       d="m 1546.0787,1956.3043 -25.422,49.364 v 505.689 0 25.28 l 25.422,49.36 25.423,-49.36 v -505.684 0 -25.285 z"
       fill="#ffffff"
       id="path8" />
    <path
       fill-rule="evenodd"
       clip-rule="evenodd"
       d="m 2690.0977,1956.3043 -25.43,49.364 v 228.399 277.29 25.28 l 25.43,49.36 25.42,-49.36 v -25.28 -480.404 -25.285 z"
       fill="#ffffff"
       id="path9" />
    <g
       id="g11">
      <ellipse
         cx="2086.7976"
         cy="2850.8074"
         rx="814.5"
         ry="187"
         stroke="#ffffff"
         stroke-width="10"
         id="ellipse9"
         style="stroke-width:38.91984206;stroke-dasharray:none" />
    </g>
    <g
       id="text9"
       style="font-size:400px;font-family:'Noto Sans';-inkscape-font-specification:'Noto Sans';fill:#ffffff;stroke:#000000;stroke-width:2;stroke-linecap:square;stroke-opacity:0"
       aria-label="Dimension&#10;Divers"
       transform="translate(1062.2977,1152.8073)">
      <path
         style="font-family:'A-OTF Shin Go Pro';-inkscape-font-specification:'A-OTF Shin Go Pro'"
         d="m -72.320052,2214.3071 v 315.2 H 112.87995 c 90.4,0 117.6,-40 117.6,-159.2 0,-122.4 -31.2,-156 -120.4,-156 z m 176.800002,60 c 48.4,0 60,16.8 60,92.8 0,85.2 -6.4,102.4 -59.6,102.4 H -6.7200516 v -195.2 z m 176.80033,-60 v 55.2 h 63.2 v -55.2 z m 1.2,79.6 v 235.6 h 61.2 v -235.6 z m 116.00022,0 v 235.6 h 60.8 v -144 c 0,-13.6 0,-38 40.4,-38 35.2,0 35.2,21.2 35.2,31.2 v 150.8 h 60.4 v -146.8 c 0,-27.2 15.2,-35.2 40.8,-35.2 22.8,0 34.4,9.2 34.4,28.4 v 153.6 h 60.8 v -171.6 c 0,-36 -13.6,-67.6 -74,-67.6 -8,0 -52,0.4 -69.2,32.4 -9.6,-15.6 -19.2,-32 -63.2,-32 -44.8,0 -60,19.2 -66.8,28.4 l -1.2,-25.2 z m 613.2001,135.2 c 1.6,-64.8 -2.8,-79.2 -8,-91.6 -17.2,-41.2 -53.2,-46.8 -114.8,-46.8 -108.8,0 -118.4,36 -118.4,127.2 0,100.8 31.2,114.8 128,114.8 74.8,0 110.4,-14.4 112.8,-84.4 h -60.8 c -0.8,20.8 -1.2,29.6 -56,29.6 -62,0 -64,-6 -63.6,-48.8 z m -180.8,-43.6 c 1.6,-28.4 2,-40 58.4,-40 56.4,0 60.4,6 61.6,40 z m 217.5998,-91.6 v 235.6 h 60.4 v -137.6 c 0,-26.8 5.6,-45.6 63.6,-45.6 38,0 48,12 48,32.8 v 150.4 h 60.4 v -163.2 c 0,-57.2 -25.6,-75.6 -90.8,-75.6 -38,0 -66.4,6 -82.8,29.6 l -1.2,-26.4 z m 501.5998,74.4 c -0.4,-53.6 -9.2,-77.6 -115.2,-77.6 -63.6,0 -114.4,6 -114.4,74 0,28.4 9.6,60 54,64 l 102.4,8.8 c 19.2,1.6 22,8.4 22,18.8 0,16 0,24.8 -58.4,24.8 -14.8,0 -49.2,0 -58.8,-8.8 -4,-3.6 -4,-5.6 -4,-24.8 h -58.4 c 0,72.4 24.4,85.2 121.6,85.2 67.6,0 117.6,-3.2 117.6,-74.8 0,-50.4 -20.8,-66.4 -60.4,-69.6 l -100,-7.6 c -18.8,-1.6 -19.2,-8.8 -19.2,-15.6 0,-22.4 18,-22.4 56,-22.4 56.4,0 56.4,8 56,25.6 z m 56.7997,-154 v 55.2 h 63.2 v -55.2 z m 1.2,79.6 v 235.6 h 61.2 v -235.6 z m 230.8003,-3.2 c -102.8,0 -120.4,22.4 -120.4,127.2 0,108.4 38,114.8 126.8,114.8 99.2,0 114,-29.6 114,-125.6 0,-105.2 -34,-116.4 -120.4,-116.4 z m -60,122 c 0,-57.6 2.8,-66 56.8,-66 52.8,0 62.8,1.2 62.8,61.2 0,62 -3.6,68.8 -56.4,68.8 -58.8,0 -63.2,-4 -63.2,-64 z m 217.5998,-118.8 v 235.6 h 60.4 v -137.6 c 0,-26.8 5.6,-45.6 63.6,-45.6 38,0 48,12 48,32.8 v 150.4 h 60.4 v -163.2 c 0,-57.2 -25.6,-75.6 -90.8,-75.6 -38,0 -66.4,6 -82.8,29.6 l -1.2,-26.4 z"
         id="path10" />
      <path
         style="font-family:'A-OTF Shin Go Pro';-inkscape-font-specification:'A-OTF Shin Go Pro'"
         d="m 297.89992,2657.0837 v 315.2 h 185.20001 c 90.4,0 117.6,-40 117.6,-159.2 0,-122.4 -31.2,-156 -120.4,-156 z m 176.80001,60 c 48.4,0 60,16.8 60,92.8 0,85.2 -6.4,102.4 -59.6,102.4 H 363.49992 v -195.2 z m 176.80033,-60 v 55.2 h 63.2 v -55.2 z m 1.2,79.6 v 235.6 h 61.2 v -235.6 z m 99.20022,0 93.2,235.6 h 76.4 l 93.20002,-235.6 h -68.40002 l -62.8,178.8 -63.2,-178.8 z m 526.39982,135.2 c 1.6,-64.8 -2.8,-79.2 -8,-91.6 -17.2,-41.2 -53.2,-46.8 -114.8,-46.8 -108.8,0 -118.4,36 -118.4,127.2 0,100.8 31.2,114.8 128,114.8 74.8,0 110.4,-14.4 112.8,-84.4 h -60.8 c -0.8,20.8 -1.2,29.6 -56,29.6 -62,0 -64,-6 -63.6,-48.8 z m -180.8,-43.6 c 1.6,-28.4 2,-40 58.4,-40 56.4,0 60.4,6 61.6,40 z m 217.9997,-91.6 v 235.6 h 60.4001 v -140 c 0,-23.6 18,-34.4 35.2,-37.6 7.6,-1.6 14.8,-2.8 74.8,-2 v -58.8 c -74.4,-0.4 -91.6,-0.8 -110,26.4 l -2,-23.6 z m 427.2001,74.4 c -0.4,-53.6 -9.2,-77.6 -115.2,-77.6 -63.6,0 -114.4,6 -114.4,74 0,28.4 9.6,60 54,64 l 102.4,8.8 c 19.2,1.6 22,8.4 22,18.8 0,16 0,24.8 -58.4,24.8 -14.8,0 -49.2,0 -58.8,-8.8 -4,-3.6 -4,-5.6 -4,-24.8 h -58.4 c 0,72.4 24.4,85.2 121.6,85.2 67.6,0 117.6,-3.2 117.6,-74.8 0,-50.4 -20.8,-66.4 -60.4,-69.6 l -100,-7.6 c -18.8,-1.6 -19.2,-8.8 -19.2,-15.6 0,-22.4 18,-22.4 56,-22.4 56.4,0 56.4,8 56,25.6 z"
         id="path11" />
    </g>
  </g>
</svg>
