<svg width="2048" height="2048" viewBox="0 0 2048 2048" fill="none" xmlns="http://www.w3.org/2000/svg">
<path fill-rule="evenodd" clip-rule="evenodd" d="M292.134 664.651L266.712 714.015V1219.7H266.712L266.712 1244.98L292.135 1294.35L317.557 1244.98L317.557 739.299H317.557V714.015L292.134 664.651Z" fill="white"/>
<path fill-rule="evenodd" clip-rule="evenodd" d="M1813.58 664.651L1788.15 714.015V937.033V1219.7L1788.15 1244.98L1813.58 1294.35L1839 1244.98L1839 1219.7L1839 739.299L1839 714.015L1813.58 664.651Z" fill="white"/>
<path fill-rule="evenodd" clip-rule="evenodd" d="M1052.86 162.066L1027.43 211.43V430.565V717.115L1027.43 742.399L1052.86 791.763L1078.28 742.399L1078.28 717.115L1078.28 236.715L1078.28 211.43L1052.86 162.066Z" fill="white"/>
<path fill-rule="evenodd" clip-rule="evenodd" d="M673.473 429.981L648.05 479.345V985.03H648.051L648.051 1010.31L673.473 1059.68L698.896 1010.31L698.896 504.629H698.895V479.345L673.473 429.981Z" fill="white"/>
<path fill-rule="evenodd" clip-rule="evenodd" d="M1436.15 443.67L1410.73 493.034V705.598V998.719L1410.73 1024L1436.15 1073.37L1461.57 1024L1461.57 998.719L1461.57 518.319L1461.57 493.034L1436.15 443.67Z" fill="white"/>
<path d="M1219.08 714.015L1214.64 711.726L1214.08 712.803V714.015H1219.08ZM1244.5 664.651L1248.95 662.361L1244.5 653.73L1240.06 662.361L1244.5 664.651ZM1219.08 1219.7L1224.08 1219.7V1219.7H1219.08ZM1219.08 1244.98L1214.08 1244.98L1214.08 1246.2L1214.64 1247.27L1219.08 1244.98ZM1244.5 1294.35L1240.06 1296.64L1244.5 1305.27L1248.95 1296.64L1244.5 1294.35ZM1269.93 1244.98L1274.37 1247.27L1274.93 1246.2L1274.93 1244.98L1269.93 1244.98ZM1269.93 1219.7L1274.93 1219.7L1274.93 1219.7L1269.93 1219.7ZM1269.93 739.299L1274.93 739.299L1274.93 739.299L1269.93 739.299ZM1269.93 714.015L1274.93 714.015L1274.93 712.803L1274.37 711.726L1269.93 714.015ZM1223.53 716.304L1248.95 666.94L1240.06 662.361L1214.64 711.726L1223.53 716.304ZM1224.08 910.823V714.015H1214.08V910.823H1224.08ZM1224.08 1219.7V910.823H1214.08V1219.7H1224.08ZM1224.08 1244.98L1224.08 1219.7L1214.08 1219.7L1214.08 1244.98L1224.08 1244.98ZM1248.95 1292.06L1223.53 1242.69L1214.64 1247.27L1240.06 1296.64L1248.95 1292.06ZM1265.48 1242.69L1240.06 1292.06L1248.95 1296.64L1274.37 1247.27L1265.48 1242.69ZM1264.93 1219.7L1264.93 1244.98L1274.93 1244.98L1274.93 1219.7L1264.93 1219.7ZM1264.93 739.299L1264.93 1219.7L1274.93 1219.7L1274.93 739.299L1264.93 739.299ZM1264.93 714.015L1264.93 739.299L1274.93 739.299L1274.93 714.015L1264.93 714.015ZM1240.06 666.94L1265.48 716.304L1274.37 711.726L1248.95 662.361L1240.06 666.94Z" fill="white"/>
<path fill-rule="evenodd" clip-rule="evenodd" d="M863.165 664.651L837.742 714.015V911.943V1219.7L837.742 1244.98L863.164 1294.35L888.587 1244.98L888.587 1219.7L888.587 739.299L888.587 714.015L863.165 664.651Z" fill="white"/>
<path fill-rule="evenodd" clip-rule="evenodd" d="M483.781 803.497L458.359 852.861V1358.55H458.359L458.359 1383.83L483.781 1433.19L509.204 1383.83L509.204 878.146H509.204V852.861L483.781 803.497Z" fill="white"/>
<path fill-rule="evenodd" clip-rule="evenodd" d="M1627.8 803.497L1602.37 852.861V1081.26V1358.55L1602.37 1383.83L1627.8 1433.19L1653.22 1383.83L1653.22 1358.55L1653.22 878.146L1653.22 852.861L1627.8 803.497Z" fill="white"/>
<ellipse cx="1024.5" cy="1698" rx="814.5" ry="187" stroke="white" stroke-width="10"/>
</svg>
